<svg width="468" height="348" viewBox="0 0 468 348" fill="none" xmlns="http://www.w3.org/2000/svg">
<g clip-path="url(#clip0)">
<rect width="468" height="348" fill="white"/>
<path d="M33.3483 15L453 15L435.604 184H15L33.3483 15Z" fill="#02FF0C"/>
<path d="M146.391 108.219H107.789L100.688 149H76.6406L94.3594 46.625H160.945L157.641 65.6797H115.172L111.094 89.2344H149.695L146.391 108.219ZM290.742 111.172L278.227 122.914L273.656 149H249.609L267.328 46.625H291.445L283.781 90.4297L293.766 78.2656L320.344 46.625H351.562L309.094 92.9609L332.648 149H305.156L290.742 111.172ZM409.008 105.617H371.391L367.102 130.016H411.609L408.305 149H339.75L357.469 46.625H426.164L422.859 65.6797H378.281L374.484 87.2656H412.172L409.008 105.617ZM136.617 318H113.344L88.875 253.383L77.625 318H53.5781L71.2969 215.625H94.7812L119.18 280.242L130.359 215.625H154.406L136.617 318ZM221.695 274.617H184.078L179.789 299.016H224.297L220.992 318H152.438L170.156 215.625H238.852L235.547 234.68H190.969L187.172 256.266H224.859L221.695 274.617ZM314.789 279.539L336.164 215.625H360.492L323.367 318H298.477L294.328 259.992L272.25 318H247.359L242.227 215.625H265.641L267.047 279.258L290.531 215.625H310.992L314.789 279.539ZM409.781 290.297C410.812 285 407.953 280.898 401.203 277.992L389.672 273.211C373.5 265.945 365.812 256.055 366.609 243.539C366.938 237.82 368.906 232.734 372.516 228.281C376.125 223.781 381.117 220.289 387.492 217.805C393.867 215.32 400.828 214.125 408.375 214.219C418.5 214.406 426.633 217.359 432.773 223.078C438.961 228.797 442.008 236.461 441.914 246.07H418.008C418.148 242.133 417.305 238.992 415.477 236.648C413.695 234.258 410.742 233.016 406.617 232.922C402.586 232.828 399.023 233.766 395.93 235.734C392.836 237.703 391.008 240.352 390.445 243.68C389.555 248.367 393.023 252.211 400.852 255.211C408.727 258.211 414.445 260.789 418.008 262.945C429.211 269.648 434.461 278.695 433.758 290.086C433.383 295.992 431.484 301.172 428.062 305.625C424.641 310.078 419.883 313.523 413.789 315.961C407.742 318.398 400.945 319.57 393.398 319.477C387.867 319.383 382.734 318.516 378 316.875C373.266 315.234 369.211 312.844 365.836 309.703C358.992 303.375 355.711 295.055 355.992 284.742L380.109 284.812C379.828 290.062 380.836 294.047 383.133 296.766C385.43 299.438 389.297 300.773 394.734 300.773C398.766 300.773 402.117 299.859 404.789 298.031C407.508 296.156 409.172 293.578 409.781 290.297Z" fill="black"/>
<path d="M213.82 129.875H181.125L172.055 149H145.547L199.758 46.625H222.398L241.312 149H216.281L213.82 129.875ZM190.125 110.82H211.359L206.859 75.5234L190.125 110.82Z" fill="#02FF0C"/>
<path d="M200.5 45.5L227.78 129H145.5L200.5 45.5Z" fill="black"/>
<path d="M151.929 125.5L198.975 54.1406L222.31 125.5H151.929Z" fill="black" stroke="white"/>
<path d="M144 131.5H172.5L162 148H133.5L144 131.5Z" fill="black"/>
<path d="M138.922 145.5L146.079 134.5H166.078L158.921 145.5H138.922Z" fill="black" stroke="white"/>
<path d="M200.5 132.5H229L234 149H205.5L200.5 132.5Z" fill="black"/>
<path d="M208.389 146.5L204.695 135.5H226.611L230.305 146.5H208.389Z" fill="black" stroke="white"/>
<path d="M206.5 96.5C206.5 98.4292 205.262 100.393 202.804 101.95C200.365 103.495 196.902 104.5 193 104.5C189.098 104.5 185.635 103.495 183.196 101.95C180.738 100.393 179.5 98.4292 179.5 96.5C179.5 94.5708 180.738 92.6066 183.196 91.0497C185.635 89.5047 189.098 88.5 193 88.5C196.902 88.5 200.365 89.5047 202.804 91.0497C205.262 92.6066 206.5 94.5708 206.5 96.5Z" fill="black" stroke="white" stroke-width="3"/>
<circle cx="192.5" cy="96.5" r="5.5" fill="black" stroke="white" stroke-width="2"/>
<line x1="200.447" y1="111.776" x2="204.447" y2="119.776" stroke="black"/>
<line x1="208.384" y1="107.68" x2="213.384" y2="113.68" stroke="black"/>
<line x1="203.429" y1="78.2572" x2="200.429" y2="83.2572" stroke="black"/>
<line x1="183.447" y1="78.7764" x2="186.447" y2="84.7764" stroke="black"/>
<line x1="190.5" y1="71" x2="190.5" y2="83" stroke="black"/>
<line x1="199.485" y1="71.1213" x2="196.485" y2="83.1213" stroke="black"/>
<line x1="175.329" y1="107.376" x2="167.329" y2="114.376" stroke="black"/>
<line x1="180.455" y1="109.207" x2="175.455" y2="120.207" stroke="black"/>
<line x1="192.498" y1="111.95" x2="193.498" y2="121.95" stroke="black"/>
<line x1="185.496" y1="112.062" x2="184.496" y2="120.062" stroke="black"/>
<line x1="143.5" y1="138.5" x2="163.5" y2="138.5" stroke="white"/>
<line x1="141" y1="142" x2="161" y2="142" stroke="white"/>
<line x1="160.447" y1="134.224" x2="158.447" y2="138.224" stroke="white"/>
<line x1="151.447" y1="134.224" x2="149.447" y2="138.224" stroke="white"/>
<line x1="153.447" y1="138.224" x2="151.447" y2="142.224" stroke="white"/>
<line x1="148.447" y1="141.724" x2="146.447" y2="145.724" stroke="white"/>
<line x1="155.447" y1="141.724" x2="153.447" y2="145.724" stroke="white"/>
<path d="M206 139.5H228" stroke="white"/>
<path d="M207 143H229" stroke="white"/>
<line x1="218.474" y1="139.842" x2="219.474" y2="142.842" stroke="white"/>
<path d="M222.474 135.842L223.5 139.5" stroke="white"/>
<path d="M212.474 135.842L213.5 139.5" stroke="white"/>
<path d="M212.474 142.842L213.5 146.5" stroke="white"/>
<path d="M224.174 143L225.2 146.658" stroke="white"/>
</g>
<defs>
<clipPath id="clip0">
<rect width="468" height="348" fill="white"/>
</clipPath>
</defs>
</svg>
