<svg width="878" height="293" viewBox="0 0 878 293" fill="none" xmlns="http://www.w3.org/2000/svg">
<path d="M65 0L865.5 0L832.316 169H30L65 0Z" fill="#02FF0C"/>
<path d="M41.8008 256.77L52.4883 224.812H64.6523L46.0898 276H33.6445L31.5703 246.996L20.5312 276H8.08594L5.51953 224.812H17.2266L17.9297 256.629L29.6719 224.812H39.9023L41.8008 256.77ZM78.4336 276.703C75.0352 276.68 72 275.883 69.3281 274.312C66.6797 272.719 64.6758 270.516 63.3164 267.703C61.957 264.867 61.418 261.75 61.6992 258.352L61.8047 257.367C62.4375 251.109 64.6055 246.164 68.3086 242.531C72.0352 238.875 76.5938 237.117 81.9844 237.258C85.2422 237.305 88.0312 238.137 90.3516 239.754C92.6719 241.348 94.3711 243.562 95.4492 246.398C96.5273 249.211 96.8789 252.375 96.5039 255.891L95.8359 260.707H73.1953C73.2422 262.699 73.8047 264.316 74.8828 265.559C75.9609 266.801 77.5312 267.457 79.5938 267.527C82.9453 267.621 85.957 266.332 88.6289 263.66L93.4805 270.094C92.0508 272.133 90.0469 273.738 87.4688 274.91C84.9141 276.059 82.1133 276.656 79.0664 276.703H78.4336ZM81.2461 246.363C79.6055 246.316 78.1758 246.832 76.957 247.91C75.7617 248.988 74.7188 250.793 73.8281 253.324H85.3945L85.6055 252.305C85.7461 251.484 85.7695 250.711 85.6758 249.984C85.2773 247.641 83.8008 246.434 81.2461 246.363ZM127.898 276H116.297L125.648 222H137.25L127.898 276ZM147.445 276H135.844L142.453 237.961H154.055L147.445 276ZM143.473 228.363C143.426 226.652 144.023 225.223 145.266 224.074C146.531 222.926 148.055 222.352 149.836 222.352C151.641 222.352 153.141 222.867 154.336 223.898C155.555 224.93 156.188 226.277 156.234 227.941C156.281 229.676 155.684 231.117 154.441 232.266C153.199 233.391 151.676 233.953 149.871 233.953C148.113 233.953 146.613 233.449 145.371 232.441C144.152 231.41 143.52 230.051 143.473 228.363ZM173.707 276.703C170.309 276.68 167.273 275.883 164.602 274.312C161.953 272.719 159.949 270.516 158.59 267.703C157.23 264.867 156.691 261.75 156.973 258.352L157.078 257.367C157.711 251.109 159.879 246.164 163.582 242.531C167.309 238.875 171.867 237.117 177.258 237.258C180.516 237.305 183.305 238.137 185.625 239.754C187.945 241.348 189.645 243.562 190.723 246.398C191.801 249.211 192.152 252.375 191.777 255.891L191.109 260.707H168.469C168.516 262.699 169.078 264.316 170.156 265.559C171.234 266.801 172.805 267.457 174.867 267.527C178.219 267.621 181.23 266.332 183.902 263.66L188.754 270.094C187.324 272.133 185.32 273.738 182.742 274.91C180.188 276.059 177.387 276.656 174.34 276.703H173.707ZM176.52 246.363C174.879 246.316 173.449 246.832 172.23 247.91C171.035 248.988 169.992 250.793 169.102 253.324H180.668L180.879 252.305C181.02 251.484 181.043 250.711 180.949 249.984C180.551 247.641 179.074 246.434 176.52 246.363ZM232.418 265.102C232.723 263.555 231.527 262.395 228.832 261.621L226.336 260.988C222.258 259.91 219.27 258.398 217.371 256.453C215.473 254.508 214.582 252.199 214.699 249.527C214.816 245.871 216.434 242.906 219.551 240.633C222.691 238.336 226.512 237.211 231.012 237.258C235.488 237.305 239.109 238.441 241.875 240.668C244.664 242.895 246.082 245.895 246.129 249.668L234.598 249.633C234.691 246.633 233.367 245.133 230.625 245.133C229.453 245.133 228.363 245.484 227.355 246.188C226.348 246.867 225.75 247.781 225.562 248.93C225.164 250.828 226.84 252.129 230.59 252.832C233.848 253.605 236.367 254.508 238.148 255.539C239.93 256.547 241.289 257.801 242.227 259.301C243.164 260.801 243.598 262.605 243.527 264.715C243.457 267.012 242.707 269.062 241.277 270.867C239.848 272.672 237.773 274.113 235.055 275.191C232.359 276.27 229.43 276.773 226.266 276.703C223.523 276.68 220.969 276.105 218.602 274.98C216.258 273.855 214.418 272.332 213.082 270.41C211.77 268.465 211.09 266.238 211.043 263.73L221.801 263.801C221.848 267.176 223.535 268.84 226.863 268.793C228.293 268.793 229.512 268.477 230.52 267.844C231.527 267.188 232.16 266.273 232.418 265.102ZM268.805 228.504L267.152 237.961H273.234L271.793 246.188H265.711L262.758 263.66C262.594 264.855 262.664 265.758 262.969 266.367C263.297 266.977 264.094 267.305 265.359 267.352C265.852 267.375 266.859 267.316 268.383 267.176L267.539 275.754C265.594 276.387 263.52 276.68 261.316 276.633C257.73 276.586 255.047 275.531 253.266 273.469C251.484 271.406 250.758 268.605 251.086 265.066L254.18 246.188H249.469L250.875 237.961H255.586L257.238 228.504H268.805ZM298.898 248.684C297.656 248.496 296.461 248.379 295.312 248.332C291.844 248.238 289.195 249.434 287.367 251.918L283.078 276H271.512L278.121 237.961L288.914 237.926L288.035 242.918C290.52 239.074 293.449 237.152 296.824 237.152C297.785 237.152 298.98 237.316 300.41 237.645L298.898 248.684ZM318.691 276C318.363 275.086 318.199 273.938 318.199 272.555C315.598 275.414 312.492 276.797 308.883 276.703C305.578 276.656 302.836 275.555 300.656 273.398C298.477 271.242 297.457 268.629 297.598 265.559C297.715 261.434 299.438 258.27 302.766 256.066C306.094 253.84 310.641 252.727 316.406 252.727L320.273 252.797L320.695 250.652L320.836 248.789C320.742 246.656 319.676 245.555 317.637 245.484C315.105 245.438 313.547 246.832 312.961 249.668L301.359 249.703C301.477 247.148 302.309 244.934 303.855 243.059C305.402 241.16 307.5 239.707 310.148 238.699C312.82 237.668 315.656 237.188 318.656 237.258C321.539 237.328 324.059 237.938 326.215 239.086C328.395 240.211 330.023 241.793 331.102 243.832C332.18 245.848 332.59 248.18 332.332 250.828L329.484 268.723L329.309 270.902C329.215 272.637 329.438 274.113 329.977 275.332L329.941 276H318.691ZM312.082 268.336C314.449 268.43 316.523 267.387 318.305 265.207L319.465 259.09L316.477 259.055C314.625 259.102 313.031 259.652 311.695 260.707C310.359 261.738 309.574 263.156 309.34 264.961C309.223 265.922 309.398 266.719 309.867 267.352C310.359 267.961 311.098 268.289 312.082 268.336ZM346.852 276H335.25L341.859 237.961H353.461L346.852 276ZM342.879 228.363C342.832 226.652 343.43 225.223 344.672 224.074C345.938 222.926 347.461 222.352 349.242 222.352C351.047 222.352 352.547 222.867 353.742 223.898C354.961 224.93 355.594 226.277 355.641 227.941C355.688 229.676 355.09 231.117 353.848 232.266C352.605 233.391 351.082 233.953 349.277 233.953C347.52 233.953 346.02 233.449 344.777 232.441C343.559 231.41 342.926 230.051 342.879 228.363ZM356.168 256.91C356.613 253.09 357.656 249.633 359.297 246.539C360.961 243.445 363.035 241.113 365.52 239.543C368.004 237.949 370.816 237.176 373.957 237.223C377.777 237.316 380.66 238.688 382.605 241.336L383.836 237.926L394.523 237.961L388.301 274.523C387.598 279.68 385.336 283.746 381.516 286.723C377.695 289.699 372.938 291.117 367.242 290.977C364.711 290.93 362.262 290.426 359.895 289.465C357.527 288.504 355.5 287.051 353.812 285.105L359.297 278.285C361.336 280.863 363.984 282.188 367.242 282.258C372.375 282.352 375.633 279.621 377.016 274.066L377.297 272.906C374.672 275.484 371.777 276.75 368.613 276.703C366.176 276.68 364.031 276.07 362.18 274.875C360.328 273.656 358.875 271.91 357.82 269.637C356.766 267.363 356.168 264.832 356.027 262.043C355.934 260.637 355.98 258.926 356.168 256.91ZM367.594 260.672C367.594 262.828 367.98 264.504 368.754 265.699C369.527 266.895 370.652 267.516 372.129 267.562C374.309 267.656 376.289 266.812 378.07 265.031L381.059 248.895C380.121 247.254 378.551 246.41 376.348 246.363C374.098 246.316 372.211 247.277 370.688 249.246C369.164 251.191 368.203 253.758 367.805 256.945C367.664 258.422 367.594 259.664 367.594 260.672ZM411.504 242.109C414.34 238.805 417.609 237.176 421.312 237.223C425.133 237.316 427.957 238.711 429.785 241.406C431.637 244.102 432.305 247.758 431.789 252.375L427.852 276H416.285L420.258 252.234C420.352 251.438 420.375 250.688 420.328 249.984C420.164 247.664 418.875 246.469 416.461 246.398C414.375 246.352 412.523 247.113 410.906 248.684L406.055 276H394.488L403.875 222H415.441L411.504 242.109ZM456.258 228.504L454.605 237.961H460.688L459.246 246.188H453.164L450.211 263.66C450.047 264.855 450.117 265.758 450.422 266.367C450.75 266.977 451.547 267.305 452.812 267.352C453.305 267.375 454.312 267.316 455.836 267.176L454.992 275.754C453.047 276.387 450.973 276.68 448.77 276.633C445.184 276.586 442.5 275.531 440.719 273.469C438.938 271.406 438.211 268.605 438.539 265.066L441.633 246.188H436.922L438.328 237.961H443.039L444.691 228.504H456.258ZM498.375 228.504L496.723 237.961H502.805L501.363 246.188H495.281L492.328 263.66C492.164 264.855 492.234 265.758 492.539 266.367C492.867 266.977 493.664 267.305 494.93 267.352C495.422 267.375 496.43 267.316 497.953 267.176L497.109 275.754C495.164 276.387 493.09 276.68 490.887 276.633C487.301 276.586 484.617 275.531 482.836 273.469C481.055 271.406 480.328 268.605 480.656 265.066L483.75 246.188H479.039L480.445 237.961H485.156L486.809 228.504H498.375ZM522.141 237.258C525.539 237.305 528.48 238.16 530.965 239.824C533.449 241.465 535.266 243.762 536.414 246.715C537.586 249.668 538.008 252.949 537.68 256.559L537.609 257.332C536.953 263.168 534.785 267.879 531.105 271.465C527.426 275.051 522.879 276.797 517.465 276.703C514.09 276.656 511.172 275.824 508.711 274.207C506.25 272.566 504.422 270.281 503.227 267.352C502.055 264.422 501.633 261.164 501.961 257.578C502.547 251.344 504.68 246.375 508.359 242.672C512.062 238.969 516.656 237.164 522.141 237.258ZM513.527 257.578L513.422 259.652C513.094 264.879 514.688 267.539 518.203 267.633C522.75 267.773 525.387 264.082 526.113 256.559L526.254 253.359C526.301 251.25 525.902 249.574 525.059 248.332C524.238 247.066 523.02 246.41 521.402 246.363C519.27 246.293 517.512 247.172 516.129 249C514.77 250.805 513.902 253.664 513.527 257.578ZM574.805 259.266L584.648 237.961H597.41L575.121 281.695C573.457 285.141 571.535 287.625 569.355 289.148C567.199 290.695 564.621 291.469 561.621 291.469C560.285 291.469 558.586 291.211 556.523 290.695L557.402 282.223H558.738C560.168 282.223 561.422 281.988 562.5 281.52C563.578 281.074 564.48 280.195 565.207 278.883L566.859 275.719L560.777 237.961H572.73L574.805 259.266ZM615.516 237.258C618.914 237.305 621.855 238.16 624.34 239.824C626.824 241.465 628.641 243.762 629.789 246.715C630.961 249.668 631.383 252.949 631.055 256.559L630.984 257.332C630.328 263.168 628.16 267.879 624.48 271.465C620.801 275.051 616.254 276.797 610.84 276.703C607.465 276.656 604.547 275.824 602.086 274.207C599.625 272.566 597.797 270.281 596.602 267.352C595.43 264.422 595.008 261.164 595.336 257.578C595.922 251.344 598.055 246.375 601.734 242.672C605.438 238.969 610.031 237.164 615.516 237.258ZM606.902 257.578L606.797 259.652C606.469 264.879 608.062 267.539 611.578 267.633C616.125 267.773 618.762 264.082 619.488 256.559L619.629 253.359C619.676 251.25 619.277 249.574 618.434 248.332C617.613 247.066 616.395 246.41 614.777 246.363C612.645 246.293 610.887 247.172 609.504 249C608.145 250.805 607.277 253.664 606.902 257.578ZM656.438 271.852C653.602 275.203 650.18 276.832 646.172 276.738C642.445 276.691 639.633 275.391 637.734 272.836C635.859 270.281 635.133 266.859 635.555 262.57L639.668 237.961H651.234L647.051 262.711C646.98 263.391 646.98 264.012 647.051 264.574C647.215 266.496 648.352 267.492 650.461 267.562C652.898 267.656 654.973 266.695 656.684 264.68L661.395 237.961H673.031L666.422 276H655.664L656.438 271.852ZM700.102 248.684C698.859 248.496 697.664 248.379 696.516 248.332C693.047 248.238 690.398 249.434 688.57 251.918L684.281 276H672.715L679.324 237.961L690.117 237.926L689.238 242.918C691.723 239.074 694.652 237.152 698.027 237.152C698.988 237.152 700.184 237.316 701.613 237.645L700.102 248.684ZM719.824 276L724.992 246.188H719.648L721.055 237.961L726.398 237.926L726.855 234.586C727.441 230.531 729.059 227.309 731.707 224.918C734.543 222.387 738.234 221.145 742.781 221.191C743.953 221.191 745.863 221.449 748.512 221.965L747.633 230.719C746.555 230.438 745.641 230.297 744.891 230.297C743.18 230.297 741.762 230.695 740.637 231.492C739.535 232.266 738.832 233.391 738.527 234.867L738 237.961H745.207L743.801 246.188H736.594L731.426 276H719.824ZM764.402 276C764.074 275.086 763.91 273.938 763.91 272.555C761.309 275.414 758.203 276.797 754.594 276.703C751.289 276.656 748.547 275.555 746.367 273.398C744.188 271.242 743.168 268.629 743.309 265.559C743.426 261.434 745.148 258.27 748.477 256.066C751.805 253.84 756.352 252.727 762.117 252.727L765.984 252.797L766.406 250.652L766.547 248.789C766.453 246.656 765.387 245.555 763.348 245.484C760.816 245.438 759.258 246.832 758.672 249.668L747.07 249.703C747.188 247.148 748.02 244.934 749.566 243.059C751.113 241.16 753.211 239.707 755.859 238.699C758.531 237.668 761.367 237.188 764.367 237.258C767.25 237.328 769.77 237.938 771.926 239.086C774.105 240.211 775.734 241.793 776.812 243.832C777.891 245.848 778.301 248.18 778.043 250.828L775.195 268.723L775.02 270.902C774.926 272.637 775.148 274.113 775.688 275.332L775.652 276H764.402ZM757.793 268.336C760.16 268.43 762.234 267.387 764.016 265.207L765.176 259.09L762.188 259.055C760.336 259.102 758.742 259.652 757.406 260.707C756.07 261.738 755.285 263.156 755.051 264.961C754.934 265.922 755.109 266.719 755.578 267.352C756.07 267.961 756.809 268.289 757.793 268.336ZM797.977 267.598C799.641 267.645 800.941 267.188 801.879 266.227C802.816 265.242 803.414 263.977 803.672 262.43L814.5 262.395C814.359 265.184 813.527 267.68 812.004 269.883C810.504 272.086 808.465 273.797 805.887 275.016C803.332 276.211 800.59 276.773 797.66 276.703C792.598 276.609 788.695 274.793 785.953 271.254C783.211 267.691 782.098 263.098 782.613 257.473L782.719 256.629C783.141 252.785 784.219 249.387 785.953 246.434C787.688 243.457 789.961 241.16 792.773 239.543C795.609 237.926 798.773 237.164 802.266 237.258C806.695 237.352 810.188 238.77 812.742 241.512C815.32 244.23 816.562 247.91 816.469 252.551L805.641 252.516C805.758 248.484 804.316 246.434 801.316 246.363C797.238 246.223 794.895 249.656 794.285 256.664L793.969 260.25L793.934 261.586C793.934 265.523 795.281 267.527 797.977 267.598ZM835.91 276.703C832.512 276.68 829.477 275.883 826.805 274.312C824.156 272.719 822.152 270.516 820.793 267.703C819.434 264.867 818.895 261.75 819.176 258.352L819.281 257.367C819.914 251.109 822.082 246.164 825.785 242.531C829.512 238.875 834.07 237.117 839.461 237.258C842.719 237.305 845.508 238.137 847.828 239.754C850.148 241.348 851.848 243.562 852.926 246.398C854.004 249.211 854.355 252.375 853.98 255.891L853.312 260.707H830.672C830.719 262.699 831.281 264.316 832.359 265.559C833.438 266.801 835.008 267.457 837.07 267.527C840.422 267.621 843.434 266.332 846.105 263.66L850.957 270.094C849.527 272.133 847.523 273.738 844.945 274.91C842.391 276.059 839.59 276.656 836.543 276.703H835.91ZM838.723 246.363C837.082 246.316 835.652 246.832 834.434 247.91C833.238 248.988 832.195 250.793 831.305 253.324H842.871L843.082 252.305C843.223 251.484 843.246 250.711 843.152 249.984C842.754 247.641 841.277 246.434 838.723 246.363ZM869.73 259.793H860.344L864.949 224.812H877.254L869.73 259.793ZM856.652 270.902C856.605 269.191 857.203 267.738 858.445 266.543C859.688 265.324 861.223 264.715 863.051 264.715C864.855 264.715 866.355 265.266 867.551 266.367C868.746 267.469 869.367 268.84 869.414 270.48C869.461 272.238 868.863 273.715 867.621 274.91C866.379 276.082 864.844 276.668 863.016 276.668C861.258 276.668 859.77 276.129 858.551 275.051C857.332 273.949 856.699 272.566 856.652 270.902Z" fill="black"/>
<path d="M138.891 93.2188H100.289L93.1875 134H69.1406L86.8594 31.625H153.445L150.141 50.6797H107.672L103.594 74.2344H142.195L138.891 93.2188ZM283.242 96.1719L270.727 107.914L266.156 134H242.109L259.828 31.625H283.945L276.281 75.4297L286.266 63.2656L312.844 31.625H344.062L301.594 77.9609L325.148 134H297.656L283.242 96.1719ZM401.508 90.6172H363.891L359.602 115.016H404.109L400.805 134H332.25L349.969 31.625H418.664L415.359 50.6797H370.781L366.984 72.2656H404.672L401.508 90.6172ZM529.758 134H506.484L482.016 69.3828L470.766 134H446.719L464.438 31.625H487.922L512.32 96.2422L523.5 31.625H547.547L529.758 134ZM614.836 90.6172H577.219L572.93 115.016H617.438L614.133 134H545.578L563.297 31.625H631.992L628.688 50.6797H584.109L580.312 72.2656H618L614.836 90.6172ZM707.93 95.5391L729.305 31.625H753.633L716.508 134H691.617L687.469 75.9922L665.391 134H640.5L635.367 31.625H658.781L660.188 95.2578L683.672 31.625H704.133L707.93 95.5391ZM802.922 106.297C803.953 101 801.094 96.8984 794.344 93.9922L782.812 89.2109C766.641 81.9453 758.953 72.0547 759.75 59.5391C760.078 53.8203 762.047 48.7344 765.656 44.2812C769.266 39.7812 774.258 36.2891 780.633 33.8047C787.008 31.3203 793.969 30.125 801.516 30.2188C811.641 30.4063 819.773 33.3594 825.914 39.0781C832.102 44.7969 835.148 52.4609 835.055 62.0703H811.148C811.289 58.1328 810.445 54.9922 808.617 52.6484C806.836 50.2578 803.883 49.0156 799.758 48.9219C795.727 48.8281 792.164 49.7656 789.07 51.7344C785.977 53.7031 784.148 56.3516 783.586 59.6797C782.695 64.3672 786.164 68.2109 793.992 71.2109C801.867 74.2109 807.586 76.7891 811.148 78.9453C822.352 85.6484 827.602 94.6953 826.898 106.086C826.523 111.992 824.625 117.172 821.203 121.625C817.781 126.078 813.023 129.523 806.93 131.961C800.883 134.398 794.086 135.57 786.539 135.477C781.008 135.383 775.875 134.516 771.141 132.875C766.406 131.234 762.352 128.844 758.977 125.703C752.133 119.375 748.852 111.055 749.133 100.742L773.25 100.812C772.969 106.062 773.977 110.047 776.273 112.766C778.57 115.438 782.438 116.773 787.875 116.773C791.906 116.773 795.258 115.859 797.93 114.031C800.648 112.156 802.312 109.578 802.922 106.297Z" fill="black"/>
<path d="M206.32 114.875H173.625L164.555 134H138.047L192.258 31.625H214.898L233.812 134H208.781L206.32 114.875ZM182.625 95.8203H203.859L199.359 60.5234L182.625 95.8203Z" fill="#02FF0C"/>
<path d="M196.5 30.5L223.78 114H141.5L196.5 30.5Z" fill="black"/>
<path d="M147.929 110.5L194.975 39.1406L218.31 110.5H147.929Z" fill="black" stroke="white"/>
<path d="M140 116.5H168.5L158 133H129.5L140 116.5Z" fill="black"/>
<path d="M134.922 130.5L142.079 119.5H162.078L154.921 130.5H134.922Z" fill="black" stroke="white"/>
<path d="M196.5 117.5H225L230 134H201.5L196.5 117.5Z" fill="black"/>
<path d="M204.389 131.5L200.695 120.5H222.611L226.305 131.5H204.389Z" fill="black" stroke="white"/>
<path d="M202.5 81.5C202.5 83.4292 201.262 85.3934 198.804 86.9503C196.365 88.4953 192.902 89.5 189 89.5C185.098 89.5 181.635 88.4953 179.196 86.9503C176.738 85.3934 175.5 83.4292 175.5 81.5C175.5 79.5708 176.738 77.6066 179.196 76.0497C181.635 74.5047 185.098 73.5 189 73.5C192.902 73.5 196.365 74.5047 198.804 76.0497C201.262 77.6066 202.5 79.5708 202.5 81.5Z" fill="black" stroke="white" stroke-width="3"/>
<circle cx="188.5" cy="81.5" r="5.5" fill="black" stroke="white" stroke-width="2"/>
<line x1="196.447" y1="96.7764" x2="200.447" y2="104.776" stroke="black"/>
<line x1="204.384" y1="92.6799" x2="209.384" y2="98.6799" stroke="black"/>
<line x1="199.429" y1="63.2572" x2="196.429" y2="68.2572" stroke="black"/>
<line x1="179.447" y1="63.7764" x2="182.447" y2="69.7764" stroke="black"/>
<line x1="186.5" y1="56" x2="186.5" y2="68" stroke="black"/>
<line x1="195.485" y1="56.1213" x2="192.485" y2="68.1213" stroke="black"/>
<line x1="171.329" y1="92.3763" x2="163.329" y2="99.3763" stroke="black"/>
<line x1="176.455" y1="94.2069" x2="171.455" y2="105.207" stroke="black"/>
<line x1="188.498" y1="96.9502" x2="189.498" y2="106.95" stroke="black"/>
<line x1="181.496" y1="97.062" x2="180.496" y2="105.062" stroke="black"/>
<line x1="139.5" y1="123.5" x2="159.5" y2="123.5" stroke="white"/>
<line x1="137" y1="127" x2="157" y2="127" stroke="white"/>
<line x1="156.447" y1="119.224" x2="154.447" y2="123.224" stroke="white"/>
<line x1="147.447" y1="119.224" x2="145.447" y2="123.224" stroke="white"/>
<line x1="149.447" y1="123.224" x2="147.447" y2="127.224" stroke="white"/>
<line x1="144.447" y1="126.724" x2="142.447" y2="130.724" stroke="white"/>
<line x1="151.447" y1="126.724" x2="149.447" y2="130.724" stroke="white"/>
<path d="M202 124.5H224" stroke="white"/>
<path d="M203 128H225" stroke="white"/>
<line x1="214.474" y1="124.842" x2="215.474" y2="127.842" stroke="white"/>
<path d="M218.474 120.842L219.5 124.5" stroke="white"/>
<path d="M208.474 120.842L209.5 124.5" stroke="white"/>
<path d="M208.474 127.842L209.5 131.5" stroke="white"/>
<path d="M220.174 128L221.2 131.658" stroke="white"/>
</svg>
