<svg width="1344" height="293" viewBox="0 0 1344 293" fill="none" xmlns="http://www.w3.org/2000/svg">
<path d="M531 0L1331.5 0L1298.32 169H496L531 0Z" fill="#02FF0C"/>
<path d="M507.801 256.77L518.488 224.812H530.652L512.09 276H499.645L497.57 246.996L486.531 276H474.086L471.52 224.812H483.227L483.93 256.629L495.672 224.812H505.902L507.801 256.77ZM544.434 276.703C541.035 276.68 538 275.883 535.328 274.312C532.68 272.719 530.676 270.516 529.316 267.703C527.957 264.867 527.418 261.75 527.699 258.352L527.805 257.367C528.438 251.109 530.605 246.164 534.309 242.531C538.035 238.875 542.594 237.117 547.984 237.258C551.242 237.305 554.031 238.137 556.352 239.754C558.672 241.348 560.371 243.562 561.449 246.398C562.527 249.211 562.879 252.375 562.504 255.891L561.836 260.707H539.195C539.242 262.699 539.805 264.316 540.883 265.559C541.961 266.801 543.531 267.457 545.594 267.527C548.945 267.621 551.957 266.332 554.629 263.66L559.48 270.094C558.051 272.133 556.047 273.738 553.469 274.91C550.914 276.059 548.113 276.656 545.066 276.703H544.434ZM547.246 246.363C545.605 246.316 544.176 246.832 542.957 247.91C541.762 248.988 540.719 250.793 539.828 253.324H551.395L551.605 252.305C551.746 251.484 551.77 250.711 551.676 249.984C551.277 247.641 549.801 246.434 547.246 246.363ZM593.898 276H582.297L591.648 222H603.25L593.898 276ZM613.445 276H601.844L608.453 237.961H620.055L613.445 276ZM609.473 228.363C609.426 226.652 610.023 225.223 611.266 224.074C612.531 222.926 614.055 222.352 615.836 222.352C617.641 222.352 619.141 222.867 620.336 223.898C621.555 224.93 622.188 226.277 622.234 227.941C622.281 229.676 621.684 231.117 620.441 232.266C619.199 233.391 617.676 233.953 615.871 233.953C614.113 233.953 612.613 233.449 611.371 232.441C610.152 231.41 609.52 230.051 609.473 228.363ZM639.707 276.703C636.309 276.68 633.273 275.883 630.602 274.312C627.953 272.719 625.949 270.516 624.59 267.703C623.23 264.867 622.691 261.75 622.973 258.352L623.078 257.367C623.711 251.109 625.879 246.164 629.582 242.531C633.309 238.875 637.867 237.117 643.258 237.258C646.516 237.305 649.305 238.137 651.625 239.754C653.945 241.348 655.645 243.562 656.723 246.398C657.801 249.211 658.152 252.375 657.777 255.891L657.109 260.707H634.469C634.516 262.699 635.078 264.316 636.156 265.559C637.234 266.801 638.805 267.457 640.867 267.527C644.219 267.621 647.23 266.332 649.902 263.66L654.754 270.094C653.324 272.133 651.32 273.738 648.742 274.91C646.188 276.059 643.387 276.656 640.34 276.703H639.707ZM642.52 246.363C640.879 246.316 639.449 246.832 638.23 247.91C637.035 248.988 635.992 250.793 635.102 253.324H646.668L646.879 252.305C647.02 251.484 647.043 250.711 646.949 249.984C646.551 247.641 645.074 246.434 642.52 246.363ZM698.418 265.102C698.723 263.555 697.527 262.395 694.832 261.621L692.336 260.988C688.258 259.91 685.27 258.398 683.371 256.453C681.473 254.508 680.582 252.199 680.699 249.527C680.816 245.871 682.434 242.906 685.551 240.633C688.691 238.336 692.512 237.211 697.012 237.258C701.488 237.305 705.109 238.441 707.875 240.668C710.664 242.895 712.082 245.895 712.129 249.668L700.598 249.633C700.691 246.633 699.367 245.133 696.625 245.133C695.453 245.133 694.363 245.484 693.355 246.188C692.348 246.867 691.75 247.781 691.562 248.93C691.164 250.828 692.84 252.129 696.59 252.832C699.848 253.605 702.367 254.508 704.148 255.539C705.93 256.547 707.289 257.801 708.227 259.301C709.164 260.801 709.598 262.605 709.527 264.715C709.457 267.012 708.707 269.062 707.277 270.867C705.848 272.672 703.773 274.113 701.055 275.191C698.359 276.27 695.43 276.773 692.266 276.703C689.523 276.68 686.969 276.105 684.602 274.98C682.258 273.855 680.418 272.332 679.082 270.41C677.77 268.465 677.09 266.238 677.043 263.73L687.801 263.801C687.848 267.176 689.535 268.84 692.863 268.793C694.293 268.793 695.512 268.477 696.52 267.844C697.527 267.188 698.16 266.273 698.418 265.102ZM734.805 228.504L733.152 237.961H739.234L737.793 246.188H731.711L728.758 263.66C728.594 264.855 728.664 265.758 728.969 266.367C729.297 266.977 730.094 267.305 731.359 267.352C731.852 267.375 732.859 267.316 734.383 267.176L733.539 275.754C731.594 276.387 729.52 276.68 727.316 276.633C723.73 276.586 721.047 275.531 719.266 273.469C717.484 271.406 716.758 268.605 717.086 265.066L720.18 246.188H715.469L716.875 237.961H721.586L723.238 228.504H734.805ZM764.898 248.684C763.656 248.496 762.461 248.379 761.312 248.332C757.844 248.238 755.195 249.434 753.367 251.918L749.078 276H737.512L744.121 237.961L754.914 237.926L754.035 242.918C756.52 239.074 759.449 237.152 762.824 237.152C763.785 237.152 764.98 237.316 766.41 237.645L764.898 248.684ZM784.691 276C784.363 275.086 784.199 273.938 784.199 272.555C781.598 275.414 778.492 276.797 774.883 276.703C771.578 276.656 768.836 275.555 766.656 273.398C764.477 271.242 763.457 268.629 763.598 265.559C763.715 261.434 765.438 258.27 768.766 256.066C772.094 253.84 776.641 252.727 782.406 252.727L786.273 252.797L786.695 250.652L786.836 248.789C786.742 246.656 785.676 245.555 783.637 245.484C781.105 245.438 779.547 246.832 778.961 249.668L767.359 249.703C767.477 247.148 768.309 244.934 769.855 243.059C771.402 241.16 773.5 239.707 776.148 238.699C778.82 237.668 781.656 237.188 784.656 237.258C787.539 237.328 790.059 237.938 792.215 239.086C794.395 240.211 796.023 241.793 797.102 243.832C798.18 245.848 798.59 248.18 798.332 250.828L795.484 268.723L795.309 270.902C795.215 272.637 795.438 274.113 795.977 275.332L795.941 276H784.691ZM778.082 268.336C780.449 268.43 782.523 267.387 784.305 265.207L785.465 259.09L782.477 259.055C780.625 259.102 779.031 259.652 777.695 260.707C776.359 261.738 775.574 263.156 775.34 264.961C775.223 265.922 775.398 266.719 775.867 267.352C776.359 267.961 777.098 268.289 778.082 268.336ZM812.852 276H801.25L807.859 237.961H819.461L812.852 276ZM808.879 228.363C808.832 226.652 809.43 225.223 810.672 224.074C811.938 222.926 813.461 222.352 815.242 222.352C817.047 222.352 818.547 222.867 819.742 223.898C820.961 224.93 821.594 226.277 821.641 227.941C821.688 229.676 821.09 231.117 819.848 232.266C818.605 233.391 817.082 233.953 815.277 233.953C813.52 233.953 812.02 233.449 810.777 232.441C809.559 231.41 808.926 230.051 808.879 228.363ZM822.168 256.91C822.613 253.09 823.656 249.633 825.297 246.539C826.961 243.445 829.035 241.113 831.52 239.543C834.004 237.949 836.816 237.176 839.957 237.223C843.777 237.316 846.66 238.688 848.605 241.336L849.836 237.926L860.523 237.961L854.301 274.523C853.598 279.68 851.336 283.746 847.516 286.723C843.695 289.699 838.938 291.117 833.242 290.977C830.711 290.93 828.262 290.426 825.895 289.465C823.527 288.504 821.5 287.051 819.812 285.105L825.297 278.285C827.336 280.863 829.984 282.188 833.242 282.258C838.375 282.352 841.633 279.621 843.016 274.066L843.297 272.906C840.672 275.484 837.777 276.75 834.613 276.703C832.176 276.68 830.031 276.07 828.18 274.875C826.328 273.656 824.875 271.91 823.82 269.637C822.766 267.363 822.168 264.832 822.027 262.043C821.934 260.637 821.98 258.926 822.168 256.91ZM833.594 260.672C833.594 262.828 833.98 264.504 834.754 265.699C835.527 266.895 836.652 267.516 838.129 267.562C840.309 267.656 842.289 266.812 844.07 265.031L847.059 248.895C846.121 247.254 844.551 246.41 842.348 246.363C840.098 246.316 838.211 247.277 836.688 249.246C835.164 251.191 834.203 253.758 833.805 256.945C833.664 258.422 833.594 259.664 833.594 260.672ZM877.504 242.109C880.34 238.805 883.609 237.176 887.312 237.223C891.133 237.316 893.957 238.711 895.785 241.406C897.637 244.102 898.305 247.758 897.789 252.375L893.852 276H882.285L886.258 252.234C886.352 251.438 886.375 250.688 886.328 249.984C886.164 247.664 884.875 246.469 882.461 246.398C880.375 246.352 878.523 247.113 876.906 248.684L872.055 276H860.488L869.875 222H881.441L877.504 242.109ZM922.258 228.504L920.605 237.961H926.688L925.246 246.188H919.164L916.211 263.66C916.047 264.855 916.117 265.758 916.422 266.367C916.75 266.977 917.547 267.305 918.812 267.352C919.305 267.375 920.312 267.316 921.836 267.176L920.992 275.754C919.047 276.387 916.973 276.68 914.77 276.633C911.184 276.586 908.5 275.531 906.719 273.469C904.938 271.406 904.211 268.605 904.539 265.066L907.633 246.188H902.922L904.328 237.961H909.039L910.691 228.504H922.258ZM964.375 228.504L962.723 237.961H968.805L967.363 246.188H961.281L958.328 263.66C958.164 264.855 958.234 265.758 958.539 266.367C958.867 266.977 959.664 267.305 960.93 267.352C961.422 267.375 962.43 267.316 963.953 267.176L963.109 275.754C961.164 276.387 959.09 276.68 956.887 276.633C953.301 276.586 950.617 275.531 948.836 273.469C947.055 271.406 946.328 268.605 946.656 265.066L949.75 246.188H945.039L946.445 237.961H951.156L952.809 228.504H964.375ZM988.141 237.258C991.539 237.305 994.48 238.16 996.965 239.824C999.449 241.465 1001.27 243.762 1002.41 246.715C1003.59 249.668 1004.01 252.949 1003.68 256.559L1003.61 257.332C1002.95 263.168 1000.79 267.879 997.105 271.465C993.426 275.051 988.879 276.797 983.465 276.703C980.09 276.656 977.172 275.824 974.711 274.207C972.25 272.566 970.422 270.281 969.227 267.352C968.055 264.422 967.633 261.164 967.961 257.578C968.547 251.344 970.68 246.375 974.359 242.672C978.062 238.969 982.656 237.164 988.141 237.258ZM979.527 257.578L979.422 259.652C979.094 264.879 980.688 267.539 984.203 267.633C988.75 267.773 991.387 264.082 992.113 256.559L992.254 253.359C992.301 251.25 991.902 249.574 991.059 248.332C990.238 247.066 989.02 246.41 987.402 246.363C985.27 246.293 983.512 247.172 982.129 249C980.77 250.805 979.902 253.664 979.527 257.578ZM1040.8 259.266L1050.65 237.961H1063.41L1041.12 281.695C1039.46 285.141 1037.54 287.625 1035.36 289.148C1033.2 290.695 1030.62 291.469 1027.62 291.469C1026.29 291.469 1024.59 291.211 1022.52 290.695L1023.4 282.223H1024.74C1026.17 282.223 1027.42 281.988 1028.5 281.52C1029.58 281.074 1030.48 280.195 1031.21 278.883L1032.86 275.719L1026.78 237.961H1038.73L1040.8 259.266ZM1081.52 237.258C1084.91 237.305 1087.86 238.16 1090.34 239.824C1092.82 241.465 1094.64 243.762 1095.79 246.715C1096.96 249.668 1097.38 252.949 1097.05 256.559L1096.98 257.332C1096.33 263.168 1094.16 267.879 1090.48 271.465C1086.8 275.051 1082.25 276.797 1076.84 276.703C1073.46 276.656 1070.55 275.824 1068.09 274.207C1065.62 272.566 1063.8 270.281 1062.6 267.352C1061.43 264.422 1061.01 261.164 1061.34 257.578C1061.92 251.344 1064.05 246.375 1067.73 242.672C1071.44 238.969 1076.03 237.164 1081.52 237.258ZM1072.9 257.578L1072.8 259.652C1072.47 264.879 1074.06 267.539 1077.58 267.633C1082.12 267.773 1084.76 264.082 1085.49 256.559L1085.63 253.359C1085.68 251.25 1085.28 249.574 1084.43 248.332C1083.61 247.066 1082.39 246.41 1080.78 246.363C1078.64 246.293 1076.89 247.172 1075.5 249C1074.14 250.805 1073.28 253.664 1072.9 257.578ZM1122.44 271.852C1119.6 275.203 1116.18 276.832 1112.17 276.738C1108.45 276.691 1105.63 275.391 1103.73 272.836C1101.86 270.281 1101.13 266.859 1101.55 262.57L1105.67 237.961H1117.23L1113.05 262.711C1112.98 263.391 1112.98 264.012 1113.05 264.574C1113.21 266.496 1114.35 267.492 1116.46 267.562C1118.9 267.656 1120.97 266.695 1122.68 264.68L1127.39 237.961H1139.03L1132.42 276H1121.66L1122.44 271.852ZM1166.1 248.684C1164.86 248.496 1163.66 248.379 1162.52 248.332C1159.05 248.238 1156.4 249.434 1154.57 251.918L1150.28 276H1138.71L1145.32 237.961L1156.12 237.926L1155.24 242.918C1157.72 239.074 1160.65 237.152 1164.03 237.152C1164.99 237.152 1166.18 237.316 1167.61 237.645L1166.1 248.684ZM1185.82 276L1190.99 246.188H1185.65L1187.05 237.961L1192.4 237.926L1192.86 234.586C1193.44 230.531 1195.06 227.309 1197.71 224.918C1200.54 222.387 1204.23 221.145 1208.78 221.191C1209.95 221.191 1211.86 221.449 1214.51 221.965L1213.63 230.719C1212.55 230.438 1211.64 230.297 1210.89 230.297C1209.18 230.297 1207.76 230.695 1206.64 231.492C1205.54 232.266 1204.83 233.391 1204.53 234.867L1204 237.961H1211.21L1209.8 246.188H1202.59L1197.43 276H1185.82ZM1230.4 276C1230.07 275.086 1229.91 273.938 1229.91 272.555C1227.31 275.414 1224.2 276.797 1220.59 276.703C1217.29 276.656 1214.55 275.555 1212.37 273.398C1210.19 271.242 1209.17 268.629 1209.31 265.559C1209.43 261.434 1211.15 258.27 1214.48 256.066C1217.8 253.84 1222.35 252.727 1228.12 252.727L1231.98 252.797L1232.41 250.652L1232.55 248.789C1232.45 246.656 1231.39 245.555 1229.35 245.484C1226.82 245.438 1225.26 246.832 1224.67 249.668L1213.07 249.703C1213.19 247.148 1214.02 244.934 1215.57 243.059C1217.11 241.16 1219.21 239.707 1221.86 238.699C1224.53 237.668 1227.37 237.188 1230.37 237.258C1233.25 237.328 1235.77 237.938 1237.93 239.086C1240.11 240.211 1241.73 241.793 1242.81 243.832C1243.89 245.848 1244.3 248.18 1244.04 250.828L1241.2 268.723L1241.02 270.902C1240.93 272.637 1241.15 274.113 1241.69 275.332L1241.65 276H1230.4ZM1223.79 268.336C1226.16 268.43 1228.23 267.387 1230.02 265.207L1231.18 259.09L1228.19 259.055C1226.34 259.102 1224.74 259.652 1223.41 260.707C1222.07 261.738 1221.29 263.156 1221.05 264.961C1220.93 265.922 1221.11 266.719 1221.58 267.352C1222.07 267.961 1222.81 268.289 1223.79 268.336ZM1263.98 267.598C1265.64 267.645 1266.94 267.188 1267.88 266.227C1268.82 265.242 1269.41 263.977 1269.67 262.43L1280.5 262.395C1280.36 265.184 1279.53 267.68 1278 269.883C1276.5 272.086 1274.46 273.797 1271.89 275.016C1269.33 276.211 1266.59 276.773 1263.66 276.703C1258.6 276.609 1254.7 274.793 1251.95 271.254C1249.21 267.691 1248.1 263.098 1248.61 257.473L1248.72 256.629C1249.14 252.785 1250.22 249.387 1251.95 246.434C1253.69 243.457 1255.96 241.16 1258.77 239.543C1261.61 237.926 1264.77 237.164 1268.27 237.258C1272.7 237.352 1276.19 238.77 1278.74 241.512C1281.32 244.23 1282.56 247.91 1282.47 252.551L1271.64 252.516C1271.76 248.484 1270.32 246.434 1267.32 246.363C1263.24 246.223 1260.89 249.656 1260.29 256.664L1259.97 260.25L1259.93 261.586C1259.93 265.523 1261.28 267.527 1263.98 267.598ZM1301.91 276.703C1298.51 276.68 1295.48 275.883 1292.8 274.312C1290.16 272.719 1288.15 270.516 1286.79 267.703C1285.43 264.867 1284.89 261.75 1285.18 258.352L1285.28 257.367C1285.91 251.109 1288.08 246.164 1291.79 242.531C1295.51 238.875 1300.07 237.117 1305.46 237.258C1308.72 237.305 1311.51 238.137 1313.83 239.754C1316.15 241.348 1317.85 243.562 1318.93 246.398C1320 249.211 1320.36 252.375 1319.98 255.891L1319.31 260.707H1296.67C1296.72 262.699 1297.28 264.316 1298.36 265.559C1299.44 266.801 1301.01 267.457 1303.07 267.527C1306.42 267.621 1309.43 266.332 1312.11 263.66L1316.96 270.094C1315.53 272.133 1313.52 273.738 1310.95 274.91C1308.39 276.059 1305.59 276.656 1302.54 276.703H1301.91ZM1304.72 246.363C1303.08 246.316 1301.65 246.832 1300.43 247.91C1299.24 248.988 1298.2 250.793 1297.3 253.324H1308.87L1309.08 252.305C1309.22 251.484 1309.25 250.711 1309.15 249.984C1308.75 247.641 1307.28 246.434 1304.72 246.363ZM1335.73 259.793H1326.34L1330.95 224.812H1343.25L1335.73 259.793ZM1322.65 270.902C1322.61 269.191 1323.2 267.738 1324.45 266.543C1325.69 265.324 1327.22 264.715 1329.05 264.715C1330.86 264.715 1332.36 265.266 1333.55 266.367C1334.75 267.469 1335.37 268.84 1335.41 270.48C1335.46 272.238 1334.86 273.715 1333.62 274.91C1332.38 276.082 1330.84 276.668 1329.02 276.668C1327.26 276.668 1325.77 276.129 1324.55 275.051C1323.33 273.949 1322.7 272.566 1322.65 270.902Z" fill="black"/>
<path fill-rule="evenodd" clip-rule="evenodd" d="M11.8689 211.059L382 67.3963L383.809 72.0575L13.6781 215.72L11.8689 211.059ZM429 75.3963L0 236.396L1.75681 241.077L430.757 80.0775L429 75.3963ZM445 92.3963L40 248.396L41.7972 253.062L446.797 97.0621L445 92.3963ZM414 131.396L119 245.396L120.802 250.06L415.802 136.06L414 131.396Z" fill="#9B59A0"/>
<path fill-rule="evenodd" clip-rule="evenodd" d="M245.892 220.13C137.097 256.895 39.1773 264.941 11.7065 241.348C15.6131 244.171 21.1443 246.295 28.0965 247.74L12.2658 218.717C8.04662 224.767 6.05085 230.319 6.56274 235.196C6.43785 234.973 6.31753 234.748 6.20181 234.522C-0.137234 199.616 87.2923 140.511 205.489 100.569C323.685 60.6264 429.045 54.5811 445.179 86.1768C445.225 86.4272 445.266 86.6788 445.301 86.9317C439.546 77.4841 421.554 73.0454 395.159 73.2557L428.532 117.452C437.27 109.263 442.918 101.65 444.944 94.9456C437.412 130.366 354.686 183.365 245.892 220.13ZM424.807 120.816L389 73.3963L389.017 73.3834C380.286 73.6717 370.745 74.4209 360.515 75.6199L402.265 137.8C410.974 131.973 418.538 126.281 424.807 120.816ZM398.087 140.548L354.954 76.3072C347.36 77.2932 339.415 78.5147 331.165 79.9672L377.305 153.094C384.755 148.875 391.699 144.681 398.087 140.548ZM372.936 155.54L325.858 80.9258C317.211 82.5263 308.251 84.3719 299.027 86.458L347.943 168.567C356.756 164.227 365.105 159.873 372.936 155.54ZM343.434 170.768L293.908 87.6343C285.582 89.5769 277.053 91.7108 268.358 94.0324L319.976 181.598C328.091 178.016 335.921 174.399 343.434 170.768ZM315.362 183.618L263.351 95.385C255.258 97.5967 247.029 99.9682 238.691 102.497L292.97 192.961C300.636 189.886 308.107 186.767 315.362 183.618ZM288.262 194.834L233.765 104.005C226.853 106.142 219.87 108.386 212.834 110.735L267.942 202.581C274.845 200.039 281.623 197.454 288.262 194.834ZM263.159 204.328L207.983 112.368C199.701 115.18 191.565 118.063 183.596 121.004L238.691 212.829C240.106 212.358 241.524 211.883 242.943 211.403C249.784 209.091 256.527 206.73 263.159 204.328ZM233.824 214.436L178.829 122.778C170.9 125.753 163.145 128.782 155.585 131.854L212.567 221.125C219.581 219.006 226.672 216.776 233.824 214.436ZM207.586 222.615L150.883 133.78C143.475 136.84 136.263 139.937 129.27 143.059L184.249 229.193C191.907 227.145 199.695 224.952 207.586 222.615ZM179.173 230.534L124.662 145.134C116.564 148.812 108.773 152.52 101.326 156.235L149.955 237.594C159.425 235.496 169.183 233.142 179.173 230.534ZM144.8 238.716L96.849 158.49C90.2931 161.825 84.0194 165.162 78.0533 168.485L124.246 242.756L124.174 242.8C130.864 241.587 137.748 240.225 144.8 238.716ZM118.959 243.723C110.542 245.173 102.45 246.379 94.734 247.337L54.3215 182.677C60.3057 178.808 66.7774 174.888 73.6935 170.943L118.959 243.723ZM50.1418 185.423C42.8841 190.273 36.419 195.03 30.8331 199.64L58.3863 249.996L58.2909 250.048C67.6362 249.926 78.0083 249.233 89.2418 247.983L50.1418 185.423ZM52.7172 250.052L26.9449 202.951C22.4635 206.893 18.6618 210.715 15.5964 214.382L33.3894 247.002L31.0216 248.294C37.2814 249.369 44.5555 249.951 52.7172 250.052Z" fill="#9B59A0"/>
<path d="M604.891 93.2188H566.289L559.188 134H535.141L552.859 31.625H619.445L616.141 50.6797H573.672L569.594 74.2344H608.195L604.891 93.2188ZM749.242 96.1719L736.727 107.914L732.156 134H708.109L725.828 31.625H749.945L742.281 75.4297L752.266 63.2656L778.844 31.625H810.062L767.594 77.9609L791.148 134H763.656L749.242 96.1719ZM867.508 90.6172H829.891L825.602 115.016H870.109L866.805 134H798.25L815.969 31.625H884.664L881.359 50.6797H836.781L832.984 72.2656H870.672L867.508 90.6172ZM995.758 134H972.484L948.016 69.3828L936.766 134H912.719L930.438 31.625H953.922L978.32 96.2422L989.5 31.625H1013.55L995.758 134ZM1080.84 90.6172H1043.22L1038.93 115.016H1083.44L1080.13 134H1011.58L1029.3 31.625H1097.99L1094.69 50.6797H1050.11L1046.31 72.2656H1084L1080.84 90.6172ZM1173.93 95.5391L1195.3 31.625H1219.63L1182.51 134H1157.62L1153.47 75.9922L1131.39 134H1106.5L1101.37 31.625H1124.78L1126.19 95.2578L1149.67 31.625H1170.13L1173.93 95.5391ZM1268.92 106.297C1269.95 101 1267.09 96.8984 1260.34 93.9922L1248.81 89.2109C1232.64 81.9453 1224.95 72.0547 1225.75 59.5391C1226.08 53.8203 1228.05 48.7344 1231.66 44.2812C1235.27 39.7812 1240.26 36.2891 1246.63 33.8047C1253.01 31.3203 1259.97 30.125 1267.52 30.2188C1277.64 30.4063 1285.77 33.3594 1291.91 39.0781C1298.1 44.7969 1301.15 52.4609 1301.05 62.0703H1277.15C1277.29 58.1328 1276.45 54.9922 1274.62 52.6484C1272.84 50.2578 1269.88 49.0156 1265.76 48.9219C1261.73 48.8281 1258.16 49.7656 1255.07 51.7344C1251.98 53.7031 1250.15 56.3516 1249.59 59.6797C1248.7 64.3672 1252.16 68.2109 1259.99 71.2109C1267.87 74.2109 1273.59 76.7891 1277.15 78.9453C1288.35 85.6484 1293.6 94.6953 1292.9 106.086C1292.52 111.992 1290.62 117.172 1287.2 121.625C1283.78 126.078 1279.02 129.523 1272.93 131.961C1266.88 134.398 1260.09 135.57 1252.54 135.477C1247.01 135.383 1241.88 134.516 1237.14 132.875C1232.41 131.234 1228.35 128.844 1224.98 125.703C1218.13 119.375 1214.85 111.055 1215.13 100.742L1239.25 100.812C1238.97 106.062 1239.98 110.047 1242.27 112.766C1244.57 115.438 1248.44 116.773 1253.88 116.773C1257.91 116.773 1261.26 115.859 1263.93 114.031C1266.65 112.156 1268.31 109.578 1268.92 106.297Z" fill="black"/>
<path d="M672.32 114.875H639.625L630.555 134H604.047L658.258 31.625H680.898L699.812 134H674.781L672.32 114.875ZM648.625 95.8203H669.859L665.359 60.5234L648.625 95.8203Z" fill="#02FF0C"/>
<path d="M662.5 30.5L689.78 114H607.5L662.5 30.5Z" fill="black"/>
<path d="M613.929 110.5L660.975 39.1406L684.31 110.5H613.929Z" fill="black" stroke="white"/>
<path d="M606 116.5H634.5L624 133H595.5L606 116.5Z" fill="black"/>
<path d="M600.922 130.5L608.079 119.5H628.078L620.921 130.5H600.922Z" fill="black" stroke="white"/>
<path d="M662.5 117.5H691L696 134H667.5L662.5 117.5Z" fill="black"/>
<path d="M670.389 131.5L666.695 120.5H688.611L692.305 131.5H670.389Z" fill="black" stroke="white"/>
<path d="M668.5 81.5C668.5 83.4292 667.262 85.3934 664.804 86.9503C662.365 88.4953 658.902 89.5 655 89.5C651.098 89.5 647.635 88.4953 645.196 86.9503C642.738 85.3934 641.5 83.4292 641.5 81.5C641.5 79.5708 642.738 77.6066 645.196 76.0497C647.635 74.5047 651.098 73.5 655 73.5C658.902 73.5 662.365 74.5047 664.804 76.0497C667.262 77.6066 668.5 79.5708 668.5 81.5Z" fill="black" stroke="white" stroke-width="3"/>
<circle cx="654.5" cy="81.5" r="5.5" fill="black" stroke="white" stroke-width="2"/>
<line x1="662.447" y1="96.7764" x2="666.447" y2="104.776" stroke="black"/>
<line x1="670.384" y1="92.6799" x2="675.384" y2="98.6799" stroke="black"/>
<line x1="665.429" y1="63.2572" x2="662.429" y2="68.2572" stroke="black"/>
<line x1="645.447" y1="63.7764" x2="648.447" y2="69.7764" stroke="black"/>
<line x1="652.5" y1="56" x2="652.5" y2="68" stroke="black"/>
<line x1="661.485" y1="56.1213" x2="658.485" y2="68.1213" stroke="black"/>
<line x1="637.329" y1="92.3763" x2="629.329" y2="99.3763" stroke="black"/>
<line x1="642.455" y1="94.2069" x2="637.455" y2="105.207" stroke="black"/>
<line x1="654.498" y1="96.9502" x2="655.497" y2="106.95" stroke="black"/>
<line x1="647.496" y1="97.062" x2="646.496" y2="105.062" stroke="black"/>
<line x1="605.5" y1="123.5" x2="625.5" y2="123.5" stroke="white"/>
<line x1="603" y1="127" x2="623" y2="127" stroke="white"/>
<line x1="622.447" y1="119.224" x2="620.447" y2="123.224" stroke="white"/>
<line x1="613.447" y1="119.224" x2="611.447" y2="123.224" stroke="white"/>
<line x1="615.447" y1="123.224" x2="613.447" y2="127.224" stroke="white"/>
<line x1="610.447" y1="126.724" x2="608.447" y2="130.724" stroke="white"/>
<line x1="617.447" y1="126.724" x2="615.447" y2="130.724" stroke="white"/>
<path d="M668 124.5H690" stroke="white"/>
<path d="M669 128H691" stroke="white"/>
<line x1="680.474" y1="124.842" x2="681.474" y2="127.842" stroke="white"/>
<path d="M684.474 120.842L685.5 124.5" stroke="white"/>
<path d="M674.474 120.842L675.5 124.5" stroke="white"/>
<path d="M674.474 127.842L675.5 131.5" stroke="white"/>
<path d="M686.174 128L687.2 131.658" stroke="white"/>
</svg>
